<svg xmlns="http://www.w3.org/2000/svg" viewBox="0 0 12800 12800" aria-hidden="true" focusable="false" class="size-8 rounded-lg" data-fc-idx="0"><g fill="rgb(29,31,43)" style="fill: rgb(29, 31, 43) !important;"><path d="M910 12791 c0 -4 -27 -16 -59 -25 -32 -9 -92 -34 -132 -56 -41 -21 -99 -51 -129 -67 -30 -15 -61 -34 -70 -41 -141 -116 -240 -214 -308 -303 -24 -31 -103 -172 -129 -229 -11 -25 -34 -89 -52 -142 l-31 -97 0 -5434 0 -5435 39 -113 c37 -107 54 -143 129 -278 56 -103 193 -246 339 -358 69 -52 238 -136 348 -173 l119 -40 5433 0 c3096 0 5441 4 5451 9 9 5 55 20 102 35 176 54 349 163 496 311 132 133 239 304 311 495 l28 75 3 5473 c1 3649 -1 5472 -8 5472 -5 0 -10 7 -10 15 0 40 -70 206 -130 310 -13 22 -32 56 -43 76 -11 20 -36 54 -56 76 -20 21 -43 47 -51 58 -23 31 -196 185 -208 185 -6 0 -15 6 -19 13 -4 8 -35 26 -68 42 -33 15 -71 36 -84 46 -13 11 -32 19 -42 19 -9 0 -19 5 -21 10 -4 13 -130 60 -158 60 -11 0 -20 5 -20 10 0 7 -1835 10 -5485 10 -3095 0 -5485 -4 -5485 -9z m5957 -2488 c2 -5 4 -1577 6 -3494 l2 -3484 1223 -3 1222 -2 0 -405 0 -405 -2909 0 c-1601 0 -2911 3 -2913 8 -2 4 -2 186 0 405 l2 397 1225 0 1225 0 2 3492 3 3493 30 6 c51 10 879 3 882 -8z" style="fill: rgb(29, 31, 43) !important;"/></g><g fill="rgb(241,185,12)" style="fill: rgb(241, 185, 12) !important;"><path d="M5955 10341 l-30 -6 -3 -3493 -2 -3492 -1226 -2 -1225 -3 -1 -430 0 -430 2941 -3 2941 -2 0 435 0 435 -1222 2 -1223 3 -1 3488 c-1 1918 -5 3491 -9 3495 -8 9 -899 12 -940 3z" style="fill: rgb(241, 185, 12) !important;"/></g></svg>